<svg width="1200" height="900" viewBox="0 0 1200 900" fill="none" xmlns="http://www.w3.org/2000/svg">
  <rect width="1200" height="900" rx="36" fill="#F8F8F7"/>
  <rect x="82" y="82" width="1036" height="736" rx="28" fill="#FCFCFD" stroke="#D4D4D8"/>
  <path d="M164 662L332 498L424 570L592 384L734 520L940 290L1036 380" stroke="#111111" stroke-opacity="0.18" stroke-width="10" stroke-linecap="round" stroke-linejoin="round"/>
  <path d="M160 724H1044" stroke="#111111" stroke-opacity="0.12" stroke-width="2"/>
  <path d="M214 724V560" stroke="#111111" stroke-opacity="0.10" stroke-width="2"/>
  <path d="M332 724V462" stroke="#111111" stroke-opacity="0.10" stroke-width="2"/>
  <path d="M450 724V530" stroke="#111111" stroke-opacity="0.10" stroke-width="2"/>
  <path d="M568 724V360" stroke="#111111" stroke-opacity="0.10" stroke-width="2"/>
  <path d="M686 724V466" stroke="#111111" stroke-opacity="0.10" stroke-width="2"/>
  <path d="M804 724V502" stroke="#111111" stroke-opacity="0.10" stroke-width="2"/>
  <path d="M922 724V262" stroke="#111111" stroke-opacity="0.10" stroke-width="2"/>
  <circle cx="592" cy="384" r="112" fill="url(#paint0_radial)"/>
  <circle cx="936" cy="292" r="132" fill="url(#paint1_radial)"/>
  <defs>
    <radialGradient id="paint0_radial" cx="0" cy="0" r="1" gradientUnits="userSpaceOnUse" gradientTransform="translate(592 384) rotate(90) scale(112)">
      <stop stop-color="#A5B4FC" stop-opacity="0.35"/>
      <stop offset="1" stop-color="#A5B4FC" stop-opacity="0"/>
    </radialGradient>
    <radialGradient id="paint1_radial" cx="0" cy="0" r="1" gradientUnits="userSpaceOnUse" gradientTransform="translate(936 292) rotate(90) scale(132)">
      <stop stop-color="#67E8F9" stop-opacity="0.36"/>
      <stop offset="1" stop-color="#67E8F9" stop-opacity="0"/>
    </radialGradient>
  </defs>
</svg>
