<svg width="1600" height="1100" viewBox="0 0 1600 1100" fill="none" xmlns="http://www.w3.org/2000/svg">
  <rect width="1600" height="1100" rx="48" fill="#F7F7F5"/>
  <rect x="80" y="80" width="1440" height="940" rx="40" fill="url(#paint0_linear)" stroke="#D4D4D8"/>
  <circle cx="1220" cy="280" r="220" fill="url(#paint1_radial)"/>
  <circle cx="430" cy="780" r="250" fill="url(#paint2_radial)"/>
  <path d="M140 820C330 620 480 540 690 560C910 581 1030 768 1260 746C1380 734 1454 676 1500 636" stroke="#111111" stroke-opacity="0.10" stroke-width="2"/>
  <path d="M140 720C320 530 478 470 660 490C880 515 988 656 1222 650C1348 646 1438 590 1490 542" stroke="#111111" stroke-opacity="0.16" stroke-width="2"/>
  <path d="M220 230H756" stroke="#111111" stroke-opacity="0.22" stroke-width="2"/>
  <path d="M220 276H910" stroke="#111111" stroke-opacity="0.10" stroke-width="2"/>
  <path d="M220 322H812" stroke="#111111" stroke-opacity="0.10" stroke-width="2"/>
  <rect x="220" y="402" width="300" height="240" rx="28" fill="#FCFCFD" stroke="#D4D4D8"/>
  <rect x="548" y="402" width="372" height="240" rx="28" fill="#FAFAFB" stroke="#D4D4D8"/>
  <rect x="948" y="402" width="332" height="240" rx="28" fill="#FFFFFF" stroke="#D4D4D8"/>
  <rect x="310" y="700" width="980" height="180" rx="32" fill="#FFFFFF" stroke="#D4D4D8"/>
  <defs>
    <linearGradient id="paint0_linear" x1="170" y1="120" x2="1390" y2="938" gradientUnits="userSpaceOnUse">
      <stop stop-color="#FFFFFF"/>
      <stop offset="1" stop-color="#F0F2F5"/>
    </linearGradient>
    <radialGradient id="paint1_radial" cx="0" cy="0" r="1" gradientUnits="userSpaceOnUse" gradientTransform="translate(1220 280) rotate(90) scale(220)">
      <stop stop-color="#7DD3FC" stop-opacity="0.45"/>
      <stop offset="1" stop-color="#7DD3FC" stop-opacity="0"/>
    </radialGradient>
    <radialGradient id="paint2_radial" cx="0" cy="0" r="1" gradientUnits="userSpaceOnUse" gradientTransform="translate(430 780) rotate(90) scale(250)">
      <stop stop-color="#818CF8" stop-opacity="0.24"/>
      <stop offset="1" stop-color="#818CF8" stop-opacity="0"/>
    </radialGradient>
  </defs>
</svg>
